<svg xmlns="http://www.w3.org/2000/svg" xmlns:xlink="http://www.w3.org/1999/xlink" width="500" zoomAndPan="magnify" viewBox="0 0 375 374.999991" height="500" preserveAspectRatio="xMidYMid meet" version="1.0"><defs><g/><clipPath id="e8ebe8e3a2"><path d="M 122.855469 102.632812 L 242 102.632812 L 242 162 L 122.855469 162 Z M 122.855469 102.632812 " clip-rule="nonzero"/></clipPath><clipPath id="204064496d"><path d="M 133 170 L 251.855469 170 L 251.855469 228.632812 L 133 228.632812 Z M 133 170 " clip-rule="nonzero"/></clipPath><clipPath id="6377c9712c"><rect x="0" width="111" y="0" height="54"/></clipPath></defs><path fill="#e32811" d="M 179.105469 204.179688 L 168.523438 198.121094 L 152.09375 188.652344 L 149.585938 187.191406 L 149.585938 167.90625 L 159.683594 173.824219 L 159.683594 181.34375 L 173.605469 189.351562 L 179.105469 192.550781 Z M 192.613281 136.023438 L 187.527344 133.097656 L 173.605469 141.105469 L 173.605469 141.175781 L 164.695312 146.253906 L 225.46875 180.4375 L 225.46875 187.121094 L 222.964844 188.652344 L 206.464844 198.121094 L 190.035156 207.589844 L 187.527344 209.050781 L 184.953125 207.589844 L 182.445312 206.128906 L 182.445312 194.5 L 187.527344 197.425781 L 201.453125 189.351562 L 210.292969 184.269531 L 149.585938 149.597656 L 149.585938 143.332031 L 152.09375 141.871094 L 168.523438 132.402344 L 185.023438 122.933594 L 187.527344 121.472656 L 190.035156 122.933594 L 192.613281 124.394531 Z M 225.46875 146.253906 L 225.46875 159.484375 L 215.375 154.679688 L 215.375 149.179688 L 201.453125 141.175781 L 195.953125 137.972656 L 195.953125 126.277344 L 206.464844 132.402344 L 222.964844 141.871094 L 225.46875 143.332031 L 225.46875 146.253906 " fill-opacity="1" fill-rule="nonzero"/><g clip-path="url(#e8ebe8e3a2)"><path fill="#033352" d="M 143.390625 139.78125 L 165.460938 127.109375 L 182.445312 117.292969 L 182.445312 151.476562 L 192.613281 157.117188 L 192.613281 117.292969 L 209.527344 127.109375 L 209.597656 127.109375 L 231.597656 139.78125 L 231.597656 161.085938 L 241.691406 161.085938 L 241.691406 134.003906 L 239.1875 132.542969 L 214.609375 118.339844 L 190.035156 104.136719 L 187.527344 102.675781 L 184.953125 104.136719 L 160.378906 118.339844 L 160.449219 118.339844 L 135.871094 132.542969 L 133.296875 134.003906 L 133.296875 151.964844 L 133.15625 151.964844 L 122.855469 161.085938 L 143.390625 161.085938 L 143.390625 139.78125 " fill-opacity="1" fill-rule="nonzero"/></g><g clip-path="url(#204064496d)"><path fill="#033352" d="M 231.597656 170.273438 L 231.597656 191.578125 L 209.597656 204.316406 L 209.527344 204.316406 L 192.613281 214.132812 L 192.613281 179.253906 L 182.445312 173.40625 L 182.445312 214.132812 L 165.460938 204.316406 L 143.390625 191.578125 L 143.390625 170.273438 L 133.296875 170.273438 L 133.296875 197.425781 L 135.871094 198.886719 L 160.449219 213.089844 L 160.378906 213.089844 L 184.953125 227.222656 L 187.527344 228.683594 L 190.035156 227.222656 L 214.609375 213.089844 L 239.1875 198.886719 L 241.691406 197.425781 L 241.691406 179.464844 L 241.832031 179.464844 L 252.136719 170.273438 L 231.597656 170.273438 " fill-opacity="1" fill-rule="nonzero"/></g><g transform="matrix(1, 0, 0, 1, 133, 219)"><g clip-path="url(#6377c9712c)"><g fill="#033352" fill-opacity="1"><g transform="translate(14.631264, 25.115265)"><g><path d="M 10.15625 -11.625 C 10.207031 -11.875 10.234375 -12.222656 10.234375 -12.671875 C 10.234375 -12.929688 10.210938 -13.1875 10.171875 -13.4375 C 10.140625 -13.6875 10.082031 -13.910156 10 -14.109375 C 9.914062 -14.304688 9.785156 -14.457031 9.609375 -14.5625 C 9.441406 -14.675781 9.21875 -14.734375 8.9375 -14.734375 C 8.632812 -14.734375 8.351562 -14.664062 8.09375 -14.53125 C 7.832031 -14.394531 7.601562 -14.21875 7.40625 -14 C 7.207031 -13.789062 7.050781 -13.539062 6.9375 -13.25 C 6.832031 -12.96875 6.78125 -12.675781 6.78125 -12.375 C 6.78125 -11.925781 6.894531 -11.578125 7.125 -11.328125 C 7.351562 -11.085938 7.65625 -10.890625 8.03125 -10.734375 C 8.414062 -10.585938 8.847656 -10.460938 9.328125 -10.359375 C 9.804688 -10.253906 10.304688 -10.132812 10.828125 -10 C 11.253906 -9.875 11.679688 -9.71875 12.109375 -9.53125 C 12.535156 -9.34375 12.914062 -9.085938 13.25 -8.765625 C 13.59375 -8.453125 13.863281 -8.039062 14.0625 -7.53125 C 14.269531 -7.03125 14.375 -6.398438 14.375 -5.640625 C 14.375 -4.554688 14.160156 -3.644531 13.734375 -2.90625 C 13.304688 -2.164062 12.710938 -1.5625 11.953125 -1.09375 C 11.203125 -0.632812 10.304688 -0.300781 9.265625 -0.09375 C 8.222656 0.101562 7.09375 0.203125 5.875 0.203125 C 4.632812 0.203125 3.625 0.125 2.84375 -0.03125 C 2.0625 -0.195312 1.445312 -0.375 1 -0.5625 C 0.46875 -0.789062 0.0703125 -1.050781 -0.1875 -1.34375 L 0.703125 -4.875 L 5.234375 -4.875 C 5.210938 -4.71875 5.191406 -4.503906 5.171875 -4.234375 C 5.160156 -3.972656 5.15625 -3.765625 5.15625 -3.609375 C 5.15625 -3.398438 5.179688 -3.179688 5.234375 -2.953125 C 5.285156 -2.734375 5.363281 -2.53125 5.46875 -2.34375 C 5.582031 -2.15625 5.742188 -2 5.953125 -1.875 C 6.160156 -1.757812 6.414062 -1.703125 6.71875 -1.703125 C 7.0625 -1.703125 7.363281 -1.78125 7.625 -1.9375 C 7.894531 -2.09375 8.117188 -2.285156 8.296875 -2.515625 C 8.484375 -2.742188 8.625 -3 8.71875 -3.28125 C 8.8125 -3.5625 8.859375 -3.84375 8.859375 -4.125 C 8.859375 -4.5 8.769531 -4.816406 8.59375 -5.078125 C 8.414062 -5.335938 8.171875 -5.554688 7.859375 -5.734375 C 7.546875 -5.910156 7.1875 -6.0625 6.78125 -6.1875 C 6.382812 -6.320312 5.972656 -6.457031 5.546875 -6.59375 C 5.128906 -6.71875 4.691406 -6.863281 4.234375 -7.03125 C 3.785156 -7.207031 3.367188 -7.445312 2.984375 -7.75 C 2.609375 -8.0625 2.296875 -8.453125 2.046875 -8.921875 C 1.796875 -9.398438 1.671875 -10.007812 1.671875 -10.75 C 1.671875 -11.84375 1.945312 -12.765625 2.5 -13.515625 C 3.0625 -14.265625 3.769531 -14.867188 4.625 -15.328125 C 5.476562 -15.796875 6.410156 -16.128906 7.421875 -16.328125 C 8.429688 -16.523438 9.394531 -16.625 10.3125 -16.625 C 11.507812 -16.625 12.539062 -16.476562 13.40625 -16.1875 C 14.28125 -15.90625 14.9375 -15.578125 15.375 -15.203125 L 14.421875 -11.625 Z M 10.15625 -11.625 "/></g></g></g><g fill="#033352" fill-opacity="1"><g transform="translate(28.875255, 25.115265)"><g><path d="M 4.078125 4.328125 L -1.1875 4.328125 L 2.0625 -11.078125 L 6.265625 -11.078125 L 6.71875 -9.4375 L 6.875 -9.4375 C 7.5 -10.082031 8.191406 -10.546875 8.953125 -10.828125 C 9.710938 -11.117188 10.460938 -11.265625 11.203125 -11.265625 C 11.804688 -11.265625 12.3125 -11.171875 12.71875 -10.984375 C 13.125 -10.804688 13.445312 -10.5625 13.6875 -10.25 C 13.925781 -9.945312 14.09375 -9.578125 14.1875 -9.140625 C 14.289062 -8.710938 14.34375 -8.257812 14.34375 -7.78125 C 14.34375 -7.539062 14.328125 -7.179688 14.296875 -6.703125 C 14.265625 -6.222656 14.1875 -5.6875 14.0625 -5.09375 C 13.945312 -4.5 13.773438 -3.882812 13.546875 -3.25 C 13.328125 -2.625 13.03125 -2.050781 12.65625 -1.53125 C 12.289062 -1.019531 11.828125 -0.601562 11.265625 -0.28125 C 10.710938 0.0390625 10.050781 0.203125 9.28125 0.203125 C 8.84375 0.203125 8.421875 0.148438 8.015625 0.046875 C 7.617188 -0.0546875 7.253906 -0.191406 6.921875 -0.359375 C 6.597656 -0.535156 6.3125 -0.738281 6.0625 -0.96875 C 5.8125 -1.195312 5.628906 -1.429688 5.515625 -1.671875 L 5.359375 -1.671875 Z M 6.796875 -2.296875 C 7.210938 -2.296875 7.554688 -2.515625 7.828125 -2.953125 C 8.109375 -3.390625 8.332031 -3.90625 8.5 -4.5 C 8.675781 -5.09375 8.800781 -5.679688 8.875 -6.265625 C 8.957031 -6.859375 9 -7.300781 9 -7.59375 C 9 -7.9375 8.941406 -8.21875 8.828125 -8.4375 C 8.710938 -8.664062 8.507812 -8.78125 8.21875 -8.78125 C 7.894531 -8.78125 7.585938 -8.664062 7.296875 -8.4375 C 7.003906 -8.207031 6.785156 -8.003906 6.640625 -7.828125 L 5.640625 -3.125 C 5.773438 -2.925781 5.9375 -2.738281 6.125 -2.5625 C 6.320312 -2.382812 6.546875 -2.296875 6.796875 -2.296875 Z M 6.796875 -2.296875 "/></g></g></g><g fill="#033352" fill-opacity="1"><g transform="translate(43.041973, 25.115265)"><g><path d="M 8.109375 -11.359375 C 10.160156 -11.359375 11.648438 -11 12.578125 -10.28125 C 13.554688 -9.519531 14.046875 -8.265625 14.046875 -6.515625 C 14.046875 -5.429688 13.863281 -4.457031 13.5 -3.59375 C 13.132812 -2.726562 12.628906 -2.007812 11.984375 -1.4375 C 10.671875 -0.34375 8.78125 0.203125 6.3125 0.203125 C 4.195312 0.203125 2.6875 -0.195312 1.78125 -1 C 0.800781 -1.84375 0.3125 -3.109375 0.3125 -4.796875 C 0.3125 -5.910156 0.535156 -6.921875 0.984375 -7.828125 C 1.441406 -8.742188 2.101562 -9.5 2.96875 -10.09375 C 4.21875 -10.9375 5.929688 -11.359375 8.109375 -11.359375 Z M 6.359375 -1.546875 C 6.796875 -1.546875 7.171875 -1.785156 7.484375 -2.265625 C 7.804688 -2.742188 8.0625 -3.332031 8.25 -4.03125 C 8.4375 -4.726562 8.578125 -5.445312 8.671875 -6.1875 C 8.765625 -6.9375 8.8125 -7.585938 8.8125 -8.140625 C 8.8125 -8.617188 8.765625 -8.984375 8.671875 -9.234375 C 8.578125 -9.484375 8.375 -9.609375 8.0625 -9.609375 C 7.601562 -9.609375 7.203125 -9.359375 6.859375 -8.859375 C 6.523438 -8.359375 6.253906 -7.765625 6.046875 -7.078125 C 5.847656 -6.398438 5.703125 -5.695312 5.609375 -4.96875 C 5.515625 -4.25 5.46875 -3.664062 5.46875 -3.21875 C 5.46875 -2.101562 5.765625 -1.546875 6.359375 -1.546875 Z M 6.359375 -1.546875 "/></g></g></g><g fill="#033352" fill-opacity="1"><g transform="translate(56.976861, 25.115265)"><g><path d="M 2.09375 -11.078125 L 6.28125 -11.078125 L 6.671875 -9.140625 L 6.859375 -9.140625 C 7.253906 -9.765625 7.757812 -10.289062 8.375 -10.71875 C 8.988281 -11.144531 9.804688 -11.359375 10.828125 -11.359375 C 10.890625 -11.359375 10.992188 -11.351562 11.140625 -11.34375 C 11.285156 -11.34375 11.445312 -11.316406 11.625 -11.265625 C 11.8125 -11.222656 12.003906 -11.160156 12.203125 -11.078125 C 12.398438 -11.003906 12.59375 -10.898438 12.78125 -10.765625 L 11.640625 -5.46875 L 8.84375 -5.46875 C 8.800781 -6.53125 8.703125 -7.269531 8.546875 -7.6875 C 8.398438 -8.113281 8.15625 -8.328125 7.8125 -8.328125 C 7.632812 -8.328125 7.445312 -8.285156 7.25 -8.203125 C 7.050781 -8.128906 6.847656 -7.960938 6.640625 -7.703125 L 5 0 L -0.25 0 Z M 2.09375 -11.078125 "/></g></g></g><g fill="#033352" fill-opacity="1"><g transform="translate(68.541971, 25.115265)"><g><path d="M 1.1875 -11.078125 C 1.820312 -11.210938 2.378906 -11.363281 2.859375 -11.53125 C 3.335938 -11.707031 3.78125 -11.925781 4.1875 -12.1875 C 4.59375 -12.445312 4.976562 -12.765625 5.34375 -13.140625 C 5.71875 -13.515625 6.117188 -13.976562 6.546875 -14.53125 L 9.203125 -14.53125 L 8.453125 -11.078125 L 10.453125 -11.078125 L 10.125 -9.359375 L 8.09375 -9.359375 L 7.03125 -4.328125 C 6.945312 -3.929688 6.878906 -3.578125 6.828125 -3.265625 C 6.773438 -2.960938 6.75 -2.722656 6.75 -2.546875 C 6.75 -2.203125 6.875 -1.988281 7.125 -1.90625 C 7.375 -1.820312 7.84375 -1.78125 8.53125 -1.78125 L 8.140625 0 C 8.023438 0.03125 7.84375 0.0546875 7.59375 0.078125 C 7.34375 0.0976562 7.066406 0.117188 6.765625 0.140625 C 6.460938 0.171875 6.148438 0.1875 5.828125 0.1875 C 5.515625 0.195312 5.238281 0.203125 5 0.203125 C 4.570312 0.203125 4.148438 0.171875 3.734375 0.109375 C 3.328125 0.0546875 2.957031 -0.0546875 2.625 -0.234375 C 2.300781 -0.421875 2.039062 -0.6875 1.84375 -1.03125 C 1.644531 -1.375 1.546875 -1.835938 1.546875 -2.421875 C 1.546875 -2.628906 1.554688 -2.882812 1.578125 -3.1875 C 1.609375 -3.5 1.664062 -3.84375 1.75 -4.21875 L 2.828125 -9.359375 L 0.828125 -9.359375 Z M 1.1875 -11.078125 "/></g></g></g><g fill="#033352" fill-opacity="1"><g transform="translate(77.76306, 25.115265)"><g><path d="M 7.90625 -7.828125 C 7.925781 -7.921875 7.941406 -8.007812 7.953125 -8.09375 C 7.972656 -8.175781 7.984375 -8.269531 7.984375 -8.375 C 7.984375 -8.6875 7.925781 -8.972656 7.8125 -9.234375 C 7.707031 -9.503906 7.488281 -9.640625 7.15625 -9.640625 C 6.863281 -9.640625 6.570312 -9.515625 6.28125 -9.265625 C 5.988281 -9.015625 5.84375 -8.679688 5.84375 -8.265625 C 5.84375 -7.992188 5.914062 -7.773438 6.0625 -7.609375 C 6.207031 -7.453125 6.398438 -7.320312 6.640625 -7.21875 C 6.890625 -7.113281 7.160156 -7.023438 7.453125 -6.953125 C 7.753906 -6.890625 8.050781 -6.820312 8.34375 -6.75 C 8.757812 -6.644531 9.148438 -6.519531 9.515625 -6.375 C 9.890625 -6.226562 10.222656 -6.035156 10.515625 -5.796875 C 10.804688 -5.554688 11.035156 -5.257812 11.203125 -4.90625 C 11.378906 -4.550781 11.46875 -4.117188 11.46875 -3.609375 C 11.46875 -2.890625 11.296875 -2.285156 10.953125 -1.796875 C 10.617188 -1.304688 10.15625 -0.910156 9.5625 -0.609375 C 8.976562 -0.304688 8.285156 -0.0976562 7.484375 0.015625 C 6.679688 0.140625 5.828125 0.203125 4.921875 0.203125 C 3.523438 0.203125 2.375 0.101562 1.46875 -0.09375 C 0.5625 -0.300781 -0.0703125 -0.503906 -0.4375 -0.703125 L 0.109375 -3.265625 L 3.578125 -3.265625 C 3.566406 -3.179688 3.5625 -3.097656 3.5625 -3.015625 C 3.5625 -2.941406 3.5625 -2.863281 3.5625 -2.78125 C 3.5625 -2.382812 3.648438 -2.070312 3.828125 -1.84375 C 4.003906 -1.613281 4.316406 -1.5 4.765625 -1.5 C 5.265625 -1.5 5.617188 -1.640625 5.828125 -1.921875 C 6.046875 -2.203125 6.15625 -2.460938 6.15625 -2.703125 C 6.15625 -2.941406 6.0625 -3.148438 5.875 -3.328125 C 5.695312 -3.515625 5.472656 -3.671875 5.203125 -3.796875 C 4.929688 -3.929688 4.625 -4.046875 4.28125 -4.140625 C 3.945312 -4.234375 3.628906 -4.320312 3.328125 -4.40625 C 3.097656 -4.457031 2.84375 -4.539062 2.5625 -4.65625 C 2.28125 -4.78125 2.007812 -4.953125 1.75 -5.171875 C 1.488281 -5.398438 1.269531 -5.6875 1.09375 -6.03125 C 0.925781 -6.382812 0.84375 -6.832031 0.84375 -7.375 C 0.84375 -8.125 1.023438 -8.75 1.390625 -9.25 C 1.765625 -9.757812 2.25 -10.171875 2.84375 -10.484375 C 3.4375 -10.796875 4.109375 -11.019531 4.859375 -11.15625 C 5.609375 -11.289062 6.359375 -11.359375 7.109375 -11.359375 C 8.054688 -11.359375 8.945312 -11.269531 9.78125 -11.09375 C 10.625 -10.925781 11.316406 -10.707031 11.859375 -10.4375 L 11.265625 -7.828125 Z M 7.90625 -7.828125 "/></g></g></g><g fill="#033352" fill-opacity="1"><g transform="translate(89.436427, 25.115265)"><g/></g></g><g fill="#033352" fill-opacity="1"><g transform="translate(1.101775, 46.073809)"><g><path d="M 9.609375 -11.078125 L 14.859375 -11.078125 L 12.5 0 L 8.328125 0 L 7.859375 -1.65625 L 7.703125 -1.65625 C 7.253906 -1.113281 6.644531 -0.664062 5.875 -0.3125 C 5.113281 0.03125 4.347656 0.203125 3.578125 0.203125 C 2.546875 0.203125 1.738281 -0.0546875 1.15625 -0.578125 C 0.570312 -1.097656 0.28125 -1.78125 0.28125 -2.625 C 0.28125 -3.050781 0.351562 -3.585938 0.5 -4.234375 C 0.644531 -4.878906 0.78125 -5.488281 0.90625 -6.0625 L 1.984375 -11.078125 L 7.21875 -11.078125 L 5.921875 -5.046875 C 5.890625 -4.910156 5.851562 -4.75 5.8125 -4.5625 C 5.78125 -4.375 5.75 -4.1875 5.71875 -4 C 5.6875 -3.820312 5.65625 -3.648438 5.625 -3.484375 C 5.601562 -3.328125 5.59375 -3.195312 5.59375 -3.09375 C 5.59375 -2.832031 5.644531 -2.613281 5.75 -2.4375 C 5.863281 -2.257812 6.066406 -2.171875 6.359375 -2.171875 C 6.671875 -2.171875 6.960938 -2.269531 7.234375 -2.46875 C 7.515625 -2.675781 7.734375 -2.875 7.890625 -3.0625 Z M 9.609375 -11.078125 "/></g></g></g><g fill="#033352" fill-opacity="1"><g transform="translate(15.29425, 46.073809)"><g><path d="M 6.90625 -9.4375 C 7.269531 -9.78125 7.671875 -10.097656 8.109375 -10.390625 C 8.503906 -10.628906 8.96875 -10.847656 9.5 -11.046875 C 10.039062 -11.253906 10.632812 -11.359375 11.28125 -11.359375 C 12.175781 -11.359375 12.914062 -11.128906 13.5 -10.671875 C 14.082031 -10.222656 14.375 -9.601562 14.375 -8.8125 C 14.375 -8.59375 14.347656 -8.320312 14.296875 -8 C 14.242188 -7.6875 14.179688 -7.359375 14.109375 -7.015625 C 14.046875 -6.671875 13.972656 -6.320312 13.890625 -5.96875 C 13.816406 -5.613281 13.753906 -5.300781 13.703125 -5.03125 L 12.625 0 L 7.390625 0 L 8.8125 -6.71875 C 8.84375 -6.945312 8.882812 -7.175781 8.9375 -7.40625 C 8.988281 -7.632812 9.015625 -7.84375 9.015625 -8.03125 C 9.015625 -8.289062 8.945312 -8.503906 8.8125 -8.671875 C 8.6875 -8.835938 8.5 -8.921875 8.25 -8.921875 C 7.9375 -8.921875 7.640625 -8.804688 7.359375 -8.578125 C 7.078125 -8.359375 6.859375 -8.171875 6.703125 -8.015625 L 5 0 L -0.25 0 L 2.09375 -11.078125 L 6.28125 -11.078125 L 6.75 -9.4375 Z M 6.90625 -9.4375 "/></g></g></g><g fill="#033352" fill-opacity="1"><g transform="translate(29.512483, 46.073809)"><g><path d="M 5 0 L -0.25 0 L 3.40625 -17.3125 L 8.6875 -17.3125 Z M 5 0 "/></g></g></g><g fill="#033352" fill-opacity="1"><g transform="translate(36.18348, 46.073809)"><g><path d="M 4.96875 0 L -0.25 0 L 2.09375 -11.078125 L 7.375 -11.078125 Z M 8.03125 -14.453125 C 8.03125 -14.054688 7.945312 -13.710938 7.78125 -13.421875 C 7.625 -13.128906 7.410156 -12.878906 7.140625 -12.671875 C 6.878906 -12.472656 6.578125 -12.320312 6.234375 -12.21875 C 5.890625 -12.113281 5.535156 -12.0625 5.171875 -12.0625 C 4.484375 -12.0625 3.90625 -12.222656 3.4375 -12.546875 C 2.976562 -12.867188 2.75 -13.382812 2.75 -14.09375 C 2.75 -14.46875 2.828125 -14.804688 2.984375 -15.109375 C 3.140625 -15.410156 3.347656 -15.660156 3.609375 -15.859375 C 3.878906 -16.054688 4.191406 -16.207031 4.546875 -16.3125 C 4.898438 -16.414062 5.265625 -16.46875 5.640625 -16.46875 C 6.304688 -16.46875 6.867188 -16.300781 7.328125 -15.96875 C 7.796875 -15.644531 8.03125 -15.140625 8.03125 -14.453125 Z M 8.03125 -14.453125 "/></g></g></g><g fill="#033352" fill-opacity="1"><g transform="translate(42.854477, 46.073809)"><g><path d="M 6.90625 -9.4375 C 7.269531 -9.78125 7.671875 -10.097656 8.109375 -10.390625 C 8.503906 -10.628906 8.976562 -10.847656 9.53125 -11.046875 C 10.082031 -11.253906 10.703125 -11.359375 11.390625 -11.359375 C 12.210938 -11.359375 12.828125 -11.171875 13.234375 -10.796875 C 13.640625 -10.421875 13.863281 -9.957031 13.90625 -9.40625 L 14.0625 -9.40625 C 14.457031 -9.769531 14.890625 -10.097656 15.359375 -10.390625 C 15.753906 -10.628906 16.21875 -10.847656 16.75 -11.046875 C 17.28125 -11.253906 17.847656 -11.359375 18.453125 -11.359375 C 19.335938 -11.359375 20.0625 -11.113281 20.625 -10.625 C 21.1875 -10.132812 21.46875 -9.503906 21.46875 -8.734375 C 21.46875 -8.335938 21.394531 -7.8125 21.25 -7.15625 C 21.113281 -6.507812 20.960938 -5.800781 20.796875 -5.03125 L 19.703125 0 L 14.640625 0 L 16.03125 -6.71875 C 16.082031 -6.976562 16.132812 -7.226562 16.1875 -7.46875 C 16.238281 -7.707031 16.265625 -7.90625 16.265625 -8.0625 C 16.265625 -8.300781 16.191406 -8.503906 16.046875 -8.671875 C 15.910156 -8.835938 15.710938 -8.921875 15.453125 -8.921875 C 15.128906 -8.921875 14.828125 -8.800781 14.546875 -8.5625 C 14.265625 -8.332031 14.046875 -8.140625 13.890625 -7.984375 L 12.21875 0 L 7.390625 0 L 8.8125 -6.71875 C 8.84375 -6.945312 8.882812 -7.175781 8.9375 -7.40625 C 8.988281 -7.632812 9.015625 -7.84375 9.015625 -8.03125 C 9.015625 -8.289062 8.945312 -8.503906 8.8125 -8.671875 C 8.6875 -8.835938 8.5 -8.921875 8.25 -8.921875 C 7.9375 -8.921875 7.640625 -8.804688 7.359375 -8.578125 C 7.078125 -8.359375 6.859375 -8.171875 6.703125 -8.015625 L 5 0 L -0.25 0 L 2.09375 -11.078125 L 6.28125 -11.078125 L 6.75 -9.4375 Z M 6.90625 -9.4375 "/></g></g></g><g fill="#033352" fill-opacity="1"><g transform="translate(64.156288, 46.073809)"><g><path d="M 4.96875 0 L -0.25 0 L 2.09375 -11.078125 L 7.375 -11.078125 Z M 8.03125 -14.453125 C 8.03125 -14.054688 7.945312 -13.710938 7.78125 -13.421875 C 7.625 -13.128906 7.410156 -12.878906 7.140625 -12.671875 C 6.878906 -12.472656 6.578125 -12.320312 6.234375 -12.21875 C 5.890625 -12.113281 5.535156 -12.0625 5.171875 -12.0625 C 4.484375 -12.0625 3.90625 -12.222656 3.4375 -12.546875 C 2.976562 -12.867188 2.75 -13.382812 2.75 -14.09375 C 2.75 -14.46875 2.828125 -14.804688 2.984375 -15.109375 C 3.140625 -15.410156 3.347656 -15.660156 3.609375 -15.859375 C 3.878906 -16.054688 4.191406 -16.207031 4.546875 -16.3125 C 4.898438 -16.414062 5.265625 -16.46875 5.640625 -16.46875 C 6.304688 -16.46875 6.867188 -16.300781 7.328125 -15.96875 C 7.796875 -15.644531 8.03125 -15.140625 8.03125 -14.453125 Z M 8.03125 -14.453125 "/></g></g></g><g fill="#033352" fill-opacity="1"><g transform="translate(70.827284, 46.073809)"><g><path d="M 1.1875 -11.078125 C 1.820312 -11.210938 2.378906 -11.363281 2.859375 -11.53125 C 3.335938 -11.707031 3.78125 -11.925781 4.1875 -12.1875 C 4.59375 -12.445312 4.976562 -12.765625 5.34375 -13.140625 C 5.71875 -13.515625 6.117188 -13.976562 6.546875 -14.53125 L 9.203125 -14.53125 L 8.453125 -11.078125 L 10.453125 -11.078125 L 10.125 -9.359375 L 8.09375 -9.359375 L 7.03125 -4.328125 C 6.945312 -3.929688 6.878906 -3.578125 6.828125 -3.265625 C 6.773438 -2.960938 6.75 -2.722656 6.75 -2.546875 C 6.75 -2.203125 6.875 -1.988281 7.125 -1.90625 C 7.375 -1.820312 7.84375 -1.78125 8.53125 -1.78125 L 8.140625 0 C 8.023438 0.03125 7.84375 0.0546875 7.59375 0.078125 C 7.34375 0.0976562 7.066406 0.117188 6.765625 0.140625 C 6.460938 0.171875 6.148438 0.1875 5.828125 0.1875 C 5.515625 0.195312 5.238281 0.203125 5 0.203125 C 4.570312 0.203125 4.148438 0.171875 3.734375 0.109375 C 3.328125 0.0546875 2.957031 -0.0546875 2.625 -0.234375 C 2.300781 -0.421875 2.039062 -0.6875 1.84375 -1.03125 C 1.644531 -1.375 1.546875 -1.835938 1.546875 -2.421875 C 1.546875 -2.628906 1.554688 -2.882812 1.578125 -3.1875 C 1.609375 -3.5 1.664062 -3.84375 1.75 -4.21875 L 2.828125 -9.359375 L 0.828125 -9.359375 Z M 1.1875 -11.078125 "/></g></g></g><g fill="#033352" fill-opacity="1"><g transform="translate(79.816471, 46.073809)"><g><path d="M 5.609375 -5.171875 C 5.546875 -4.796875 5.5 -4.4375 5.46875 -4.09375 C 5.445312 -3.75 5.4375 -3.441406 5.4375 -3.171875 C 5.4375 -3.015625 5.441406 -2.84375 5.453125 -2.65625 C 5.472656 -2.46875 5.515625 -2.289062 5.578125 -2.125 C 5.640625 -1.957031 5.722656 -1.816406 5.828125 -1.703125 C 5.941406 -1.597656 6.101562 -1.546875 6.3125 -1.546875 C 6.46875 -1.546875 6.644531 -1.597656 6.84375 -1.703125 C 7.039062 -1.804688 7.238281 -1.953125 7.4375 -2.140625 C 7.632812 -2.328125 7.820312 -2.554688 8 -2.828125 C 8.175781 -3.109375 8.316406 -3.421875 8.421875 -3.765625 L 12.65625 -3.765625 L 11.984375 -1 C 11.640625 -0.78125 11.242188 -0.59375 10.796875 -0.4375 C 10.347656 -0.28125 9.875 -0.15625 9.375 -0.0625 C 8.875 0.03125 8.363281 0.0976562 7.84375 0.140625 C 7.332031 0.179688 6.847656 0.203125 6.390625 0.203125 C 5.535156 0.203125 4.738281 0.128906 4 -0.015625 C 3.257812 -0.171875 2.613281 -0.4375 2.0625 -0.8125 C 1.507812 -1.195312 1.070312 -1.703125 0.75 -2.328125 C 0.4375 -2.953125 0.28125 -3.726562 0.28125 -4.65625 C 0.28125 -5.5 0.410156 -6.320312 0.671875 -7.125 C 0.941406 -7.9375 1.390625 -8.65625 2.015625 -9.28125 C 2.648438 -9.914062 3.492188 -10.421875 4.546875 -10.796875 C 5.597656 -11.171875 6.914062 -11.359375 8.5 -11.359375 C 10.21875 -11.359375 11.507812 -11.09375 12.375 -10.5625 C 13.25 -10.03125 13.6875 -9.195312 13.6875 -8.0625 C 13.6875 -7.601562 13.613281 -7.101562 13.46875 -6.5625 C 13.332031 -6.019531 13.128906 -5.554688 12.859375 -5.171875 Z M 9.046875 -8.25 C 9.046875 -8.78125 8.957031 -9.140625 8.78125 -9.328125 C 8.613281 -9.515625 8.410156 -9.609375 8.171875 -9.609375 C 7.890625 -9.609375 7.632812 -9.515625 7.40625 -9.328125 C 7.175781 -9.148438 6.96875 -8.910156 6.78125 -8.609375 C 6.59375 -8.316406 6.421875 -7.976562 6.265625 -7.59375 C 6.109375 -7.207031 5.976562 -6.796875 5.875 -6.359375 L 8.8125 -6.359375 C 8.84375 -6.566406 8.878906 -6.785156 8.921875 -7.015625 C 8.953125 -7.203125 8.976562 -7.40625 9 -7.625 C 9.03125 -7.851562 9.046875 -8.0625 9.046875 -8.25 Z M 9.046875 -8.25 "/></g></g></g><g fill="#033352" fill-opacity="1"><g transform="translate(93.030124, 46.073809)"><g><path d="M 10.71875 -17.3125 L 16 -17.3125 L 12.3125 0 L 8.140625 0 L 7.671875 -1.65625 L 7.5 -1.65625 C 7.394531 -1.5 7.234375 -1.3125 7.015625 -1.09375 C 6.804688 -0.875 6.535156 -0.664062 6.203125 -0.46875 C 5.878906 -0.28125 5.492188 -0.125 5.046875 0 C 4.597656 0.132812 4.082031 0.203125 3.5 0.203125 C 2.90625 0.203125 2.394531 0.113281 1.96875 -0.0625 C 1.550781 -0.238281 1.207031 -0.484375 0.9375 -0.796875 C 0.675781 -1.109375 0.484375 -1.484375 0.359375 -1.921875 C 0.242188 -2.359375 0.1875 -2.832031 0.1875 -3.34375 C 0.1875 -3.570312 0.203125 -3.929688 0.234375 -4.421875 C 0.265625 -4.910156 0.34375 -5.453125 0.46875 -6.046875 C 0.601562 -6.640625 0.796875 -7.25 1.046875 -7.875 C 1.296875 -8.5 1.628906 -9.066406 2.046875 -9.578125 C 2.460938 -10.097656 2.976562 -10.523438 3.59375 -10.859375 C 4.21875 -11.191406 4.96875 -11.359375 5.84375 -11.359375 C 6.125 -11.359375 6.414062 -11.332031 6.71875 -11.28125 C 7.03125 -11.226562 7.328125 -11.132812 7.609375 -11 C 7.890625 -10.863281 8.140625 -10.664062 8.359375 -10.40625 C 8.585938 -10.144531 8.753906 -9.8125 8.859375 -9.40625 L 9.046875 -9.40625 Z M 7.578125 -8.84375 C 7.160156 -8.84375 6.8125 -8.613281 6.53125 -8.15625 C 6.257812 -7.695312 6.035156 -7.164062 5.859375 -6.5625 C 5.691406 -5.96875 5.570312 -5.367188 5.5 -4.765625 C 5.425781 -4.160156 5.390625 -3.710938 5.390625 -3.421875 C 5.390625 -3.078125 5.4375 -2.789062 5.53125 -2.5625 C 5.632812 -2.332031 5.832031 -2.21875 6.125 -2.21875 C 6.300781 -2.21875 6.46875 -2.253906 6.625 -2.328125 C 6.789062 -2.410156 6.945312 -2.503906 7.09375 -2.609375 C 7.238281 -2.722656 7.363281 -2.835938 7.46875 -2.953125 C 7.570312 -3.078125 7.660156 -3.179688 7.734375 -3.265625 L 8.734375 -7.96875 C 8.609375 -8.15625 8.445312 -8.347656 8.25 -8.546875 C 8.0625 -8.742188 7.835938 -8.84375 7.578125 -8.84375 Z M 7.578125 -8.84375 "/></g></g></g></g></g></svg>